<?xml version="1.0" encoding="utf-8"?>
<svg viewBox="0 0 24 24" fill="none" xmlns="http://www.w3.org/2000/svg">
  <g>
    <!-- Card White Background with Yellow Outline -->
    <rect x="2" y="5" width="20" height="14" rx="2" fill="#ffffff" stroke="var(--club-yellow)" stroke-width="2"/>
    
    <!-- User Elements mapped as paths (allows hover color transitions) -->
    <!-- Head -->
    <path d="M9 11.5C10.1046 11.5 11 10.6046 11 9.5C11 8.39543 10.1046 7.5 9 7.5C7.89543 7.5 7 8.39543 7 9.5C7 10.6046 7.89543 11.5 9 11.5Z" fill="var(--club-green)"/>
    <!-- Body -->
    <path d="M13 15.5C13 16.6046 13 17.5 9 17.5C5 17.5 5 16.6046 5 15.5C5 14.3954 6.79086 13.5 9 13.5C11.2091 13.5 13 14.3954 13 15.5Z" fill="var(--club-green)"/>
    
    <!-- Text Lines -->
    <path d="M14 8.5H19V10H14V8.5Z" fill="var(--club-green)"/>
    <path d="M15 11.5H19V13H15V11.5Z" fill="var(--club-green)"/>
    <path d="M16 14.5H19V16H16V14.5Z" fill="var(--club-green)"/>
  </g>
</svg>